<mxfile host="Electron" agent="Mozilla/5.0 (Windows NT 10.0; Win64; x64) AppleWebKit/537.36 (KHTML, like Gecko) draw.io/26.0.9 Chrome/128.0.6613.186 Electron/32.2.5 Safari/537.36" version="26.0.9">
  <diagram id="zIKmhAP3GXUiG4B70pd2" name="第 1 页">
    <mxGraphModel dx="1768" dy="644" grid="1" gridSize="10" guides="1" tooltips="1" connect="1" arrows="1" fold="1" page="1" pageScale="1" pageWidth="827" pageHeight="1169" math="0" shadow="0">
      <root>
        <mxCell id="0" />
        <mxCell id="1" parent="0" />
        <mxCell id="qsYzpiMb2ZFkwSfYFMTM-1" value="Empty" style="rounded=1;whiteSpace=wrap;html=1;" vertex="1" parent="1">
          <mxGeometry x="60" y="280" width="120" height="60" as="geometry" />
        </mxCell>
        <mxCell id="qsYzpiMb2ZFkwSfYFMTM-2" value="" style="endArrow=classic;html=1;rounded=0;exitX=0.5;exitY=0;exitDx=0;exitDy=0;entryX=1;entryY=0.25;entryDx=0;entryDy=0;" edge="1" parent="1" source="qsYzpiMb2ZFkwSfYFMTM-1" target="qsYzpiMb2ZFkwSfYFMTM-1">
          <mxGeometry width="50" height="50" relative="1" as="geometry">
            <mxPoint x="390" y="360" as="sourcePoint" />
            <mxPoint x="230" y="270" as="targetPoint" />
            <Array as="points">
              <mxPoint x="120" y="240" />
              <mxPoint x="280" y="240" />
              <mxPoint x="280" y="295" />
            </Array>
          </mxGeometry>
        </mxCell>
        <mxCell id="qsYzpiMb2ZFkwSfYFMTM-3" value="resume()" style="text;html=1;align=center;verticalAlign=middle;whiteSpace=wrap;rounded=0;" vertex="1" parent="1">
          <mxGeometry x="150" y="210" width="60" height="30" as="geometry" />
        </mxCell>
        <mxCell id="qsYzpiMb2ZFkwSfYFMTM-4" value="pause()" style="text;html=1;align=center;verticalAlign=middle;whiteSpace=wrap;rounded=0;" vertex="1" parent="1">
          <mxGeometry x="151" y="190" width="60" height="30" as="geometry" />
        </mxCell>
        <mxCell id="qsYzpiMb2ZFkwSfYFMTM-5" value="show()" style="text;html=1;align=center;verticalAlign=middle;whiteSpace=wrap;rounded=0;" vertex="1" parent="1">
          <mxGeometry x="150" y="170" width="60" height="30" as="geometry" />
        </mxCell>
        <mxCell id="qsYzpiMb2ZFkwSfYFMTM-6" value="hide()" style="text;html=1;align=center;verticalAlign=middle;whiteSpace=wrap;rounded=0;" vertex="1" parent="1">
          <mxGeometry x="150" y="151" width="60" height="30" as="geometry" />
        </mxCell>
        <mxCell id="qsYzpiMb2ZFkwSfYFMTM-18" style="edgeStyle=orthogonalEdgeStyle;rounded=0;orthogonalLoop=1;jettySize=auto;html=1;exitX=0;exitY=0.5;exitDx=0;exitDy=0;entryX=0.5;entryY=1;entryDx=0;entryDy=0;" edge="1" parent="1" source="qsYzpiMb2ZFkwSfYFMTM-7" target="qsYzpiMb2ZFkwSfYFMTM-7">
          <mxGeometry relative="1" as="geometry">
            <mxPoint x="120" y="550" as="targetPoint" />
            <Array as="points">
              <mxPoint x="21" y="450" />
              <mxPoint x="21" y="520" />
              <mxPoint x="120" y="520" />
            </Array>
          </mxGeometry>
        </mxCell>
        <mxCell id="qsYzpiMb2ZFkwSfYFMTM-7" value="Hide" style="rounded=1;whiteSpace=wrap;html=1;" vertex="1" parent="1">
          <mxGeometry x="60" y="420" width="120" height="60" as="geometry" />
        </mxCell>
        <mxCell id="qsYzpiMb2ZFkwSfYFMTM-8" value="" style="endArrow=classic;html=1;rounded=0;exitX=0.75;exitY=1;exitDx=0;exitDy=0;entryX=0.75;entryY=0;entryDx=0;entryDy=0;" edge="1" parent="1" source="qsYzpiMb2ZFkwSfYFMTM-1" target="qsYzpiMb2ZFkwSfYFMTM-7">
          <mxGeometry width="50" height="50" relative="1" as="geometry">
            <mxPoint x="390" y="360" as="sourcePoint" />
            <mxPoint x="440" y="310" as="targetPoint" />
          </mxGeometry>
        </mxCell>
        <mxCell id="qsYzpiMb2ZFkwSfYFMTM-9" value="attachToVideo()" style="text;html=1;align=center;verticalAlign=middle;whiteSpace=wrap;rounded=0;" vertex="1" parent="1">
          <mxGeometry x="150" y="360" width="100" height="30" as="geometry" />
        </mxCell>
        <mxCell id="qsYzpiMb2ZFkwSfYFMTM-10" value="load()" style="text;html=1;align=center;verticalAlign=middle;whiteSpace=wrap;rounded=0;" vertex="1" parent="1">
          <mxGeometry x="150" y="130" width="60" height="30" as="geometry" />
        </mxCell>
        <mxCell id="qsYzpiMb2ZFkwSfYFMTM-11" value="" style="endArrow=none;html=1;rounded=0;exitX=0.25;exitY=1;exitDx=0;exitDy=0;entryX=0.25;entryY=0;entryDx=0;entryDy=0;startArrow=classic;startFill=1;" edge="1" parent="1" source="qsYzpiMb2ZFkwSfYFMTM-1" target="qsYzpiMb2ZFkwSfYFMTM-7">
          <mxGeometry width="50" height="50" relative="1" as="geometry">
            <mxPoint x="390" y="360" as="sourcePoint" />
            <mxPoint x="440" y="310" as="targetPoint" />
          </mxGeometry>
        </mxCell>
        <mxCell id="qsYzpiMb2ZFkwSfYFMTM-12" value="detach()" style="text;html=1;align=center;verticalAlign=middle;whiteSpace=wrap;rounded=0;" vertex="1" parent="1">
          <mxGeometry x="-10" y="360" width="100" height="30" as="geometry" />
        </mxCell>
        <mxCell id="qsYzpiMb2ZFkwSfYFMTM-13" value="detach()" style="text;html=1;align=center;verticalAlign=middle;whiteSpace=wrap;rounded=0;" vertex="1" parent="1">
          <mxGeometry x="131" y="110" width="100" height="30" as="geometry" />
        </mxCell>
        <mxCell id="qsYzpiMb2ZFkwSfYFMTM-25" style="edgeStyle=orthogonalEdgeStyle;rounded=0;orthogonalLoop=1;jettySize=auto;html=1;exitX=0.5;exitY=0;exitDx=0;exitDy=0;entryX=1;entryY=0.75;entryDx=0;entryDy=0;" edge="1" parent="1" source="qsYzpiMb2ZFkwSfYFMTM-14" target="qsYzpiMb2ZFkwSfYFMTM-1">
          <mxGeometry relative="1" as="geometry">
            <mxPoint x="460" y="310" as="targetPoint" />
          </mxGeometry>
        </mxCell>
        <mxCell id="qsYzpiMb2ZFkwSfYFMTM-27" style="edgeStyle=orthogonalEdgeStyle;rounded=0;orthogonalLoop=1;jettySize=auto;html=1;exitX=0.75;exitY=1;exitDx=0;exitDy=0;entryX=0.25;entryY=1;entryDx=0;entryDy=0;" edge="1" parent="1" source="qsYzpiMb2ZFkwSfYFMTM-14" target="qsYzpiMb2ZFkwSfYFMTM-14">
          <mxGeometry relative="1" as="geometry">
            <mxPoint x="490" y="540" as="targetPoint" />
            <Array as="points">
              <mxPoint x="490" y="510" />
              <mxPoint x="430" y="510" />
            </Array>
          </mxGeometry>
        </mxCell>
        <mxCell id="qsYzpiMb2ZFkwSfYFMTM-29" style="edgeStyle=orthogonalEdgeStyle;rounded=0;orthogonalLoop=1;jettySize=auto;html=1;exitX=0;exitY=0.75;exitDx=0;exitDy=0;entryX=1;entryY=0.75;entryDx=0;entryDy=0;" edge="1" parent="1" source="qsYzpiMb2ZFkwSfYFMTM-14" target="qsYzpiMb2ZFkwSfYFMTM-7">
          <mxGeometry relative="1" as="geometry" />
        </mxCell>
        <mxCell id="qsYzpiMb2ZFkwSfYFMTM-32" style="edgeStyle=orthogonalEdgeStyle;rounded=0;orthogonalLoop=1;jettySize=auto;html=1;exitX=1;exitY=0.25;exitDx=0;exitDy=0;entryX=0;entryY=0.25;entryDx=0;entryDy=0;" edge="1" parent="1" source="qsYzpiMb2ZFkwSfYFMTM-14" target="qsYzpiMb2ZFkwSfYFMTM-31">
          <mxGeometry relative="1" as="geometry" />
        </mxCell>
        <mxCell id="qsYzpiMb2ZFkwSfYFMTM-14" value="Playing" style="rounded=1;whiteSpace=wrap;html=1;" vertex="1" parent="1">
          <mxGeometry x="400" y="420" width="120" height="60" as="geometry" />
        </mxCell>
        <mxCell id="qsYzpiMb2ZFkwSfYFMTM-15" value="" style="endArrow=classic;html=1;rounded=0;entryX=0;entryY=0.25;entryDx=0;entryDy=0;exitX=1;exitY=0.25;exitDx=0;exitDy=0;" edge="1" parent="1" source="qsYzpiMb2ZFkwSfYFMTM-7" target="qsYzpiMb2ZFkwSfYFMTM-14">
          <mxGeometry width="50" height="50" relative="1" as="geometry">
            <mxPoint x="190" y="450" as="sourcePoint" />
            <mxPoint x="440" y="310" as="targetPoint" />
          </mxGeometry>
        </mxCell>
        <mxCell id="qsYzpiMb2ZFkwSfYFMTM-17" value="show()" style="text;html=1;align=center;verticalAlign=middle;whiteSpace=wrap;rounded=0;" vertex="1" parent="1">
          <mxGeometry x="260" y="400" width="60" height="30" as="geometry" />
        </mxCell>
        <mxCell id="qsYzpiMb2ZFkwSfYFMTM-19" value="load()" style="text;html=1;align=center;verticalAlign=middle;whiteSpace=wrap;rounded=0;" vertex="1" parent="1">
          <mxGeometry x="50" y="520" width="60" height="30" as="geometry" />
        </mxCell>
        <mxCell id="qsYzpiMb2ZFkwSfYFMTM-20" value="hide()" style="text;html=1;align=center;verticalAlign=middle;whiteSpace=wrap;rounded=0;" vertex="1" parent="1">
          <mxGeometry x="50" y="540" width="60" height="30" as="geometry" />
        </mxCell>
        <mxCell id="qsYzpiMb2ZFkwSfYFMTM-21" value="pause()" style="text;html=1;align=center;verticalAlign=middle;whiteSpace=wrap;rounded=0;" vertex="1" parent="1">
          <mxGeometry x="50" y="560" width="60" height="30" as="geometry" />
        </mxCell>
        <mxCell id="qsYzpiMb2ZFkwSfYFMTM-22" value="resume()" style="text;html=1;align=center;verticalAlign=middle;whiteSpace=wrap;rounded=0;" vertex="1" parent="1">
          <mxGeometry x="50" y="580" width="60" height="30" as="geometry" />
        </mxCell>
        <mxCell id="qsYzpiMb2ZFkwSfYFMTM-23" value="attachToVideo()" style="text;html=1;align=center;verticalAlign=middle;whiteSpace=wrap;rounded=0;" vertex="1" parent="1">
          <mxGeometry x="30" y="600" width="100" height="30" as="geometry" />
        </mxCell>
        <mxCell id="qsYzpiMb2ZFkwSfYFMTM-26" value="detach()" style="text;html=1;align=center;verticalAlign=middle;whiteSpace=wrap;rounded=0;" vertex="1" parent="1">
          <mxGeometry x="450" y="360" width="100" height="30" as="geometry" />
        </mxCell>
        <mxCell id="qsYzpiMb2ZFkwSfYFMTM-28" value="load()" style="text;html=1;align=center;verticalAlign=middle;whiteSpace=wrap;rounded=0;" vertex="1" parent="1">
          <mxGeometry x="430" y="510" width="60" height="30" as="geometry" />
        </mxCell>
        <mxCell id="qsYzpiMb2ZFkwSfYFMTM-30" value="hide()" style="text;html=1;align=center;verticalAlign=middle;whiteSpace=wrap;rounded=0;" vertex="1" parent="1">
          <mxGeometry x="260" y="470" width="60" height="30" as="geometry" />
        </mxCell>
        <mxCell id="qsYzpiMb2ZFkwSfYFMTM-37" style="edgeStyle=orthogonalEdgeStyle;rounded=0;orthogonalLoop=1;jettySize=auto;html=1;exitX=0.5;exitY=0;exitDx=0;exitDy=0;entryX=1;entryY=0.5;entryDx=0;entryDy=0;" edge="1" parent="1" source="qsYzpiMb2ZFkwSfYFMTM-31" target="qsYzpiMb2ZFkwSfYFMTM-1">
          <mxGeometry relative="1" as="geometry">
            <mxPoint x="760" y="320" as="targetPoint" />
          </mxGeometry>
        </mxCell>
        <mxCell id="qsYzpiMb2ZFkwSfYFMTM-41" style="edgeStyle=orthogonalEdgeStyle;rounded=0;orthogonalLoop=1;jettySize=auto;html=1;exitX=0;exitY=0.75;exitDx=0;exitDy=0;entryX=1;entryY=0.75;entryDx=0;entryDy=0;" edge="1" parent="1" source="qsYzpiMb2ZFkwSfYFMTM-31" target="qsYzpiMb2ZFkwSfYFMTM-14">
          <mxGeometry relative="1" as="geometry" />
        </mxCell>
        <mxCell id="qsYzpiMb2ZFkwSfYFMTM-43" style="edgeStyle=orthogonalEdgeStyle;rounded=0;orthogonalLoop=1;jettySize=auto;html=1;exitX=1;exitY=0.5;exitDx=0;exitDy=0;entryX=0.75;entryY=1;entryDx=0;entryDy=0;" edge="1" parent="1" source="qsYzpiMb2ZFkwSfYFMTM-31" target="qsYzpiMb2ZFkwSfYFMTM-7">
          <mxGeometry relative="1" as="geometry">
            <mxPoint x="150" y="490" as="targetPoint" />
            <Array as="points">
              <mxPoint x="840" y="450" />
              <mxPoint x="840" y="590" />
              <mxPoint x="151" y="590" />
            </Array>
          </mxGeometry>
        </mxCell>
        <mxCell id="qsYzpiMb2ZFkwSfYFMTM-31" value="Paused" style="rounded=1;whiteSpace=wrap;html=1;" vertex="1" parent="1">
          <mxGeometry x="700" y="420" width="120" height="60" as="geometry" />
        </mxCell>
        <mxCell id="qsYzpiMb2ZFkwSfYFMTM-33" value="pause()" style="text;html=1;align=center;verticalAlign=middle;whiteSpace=wrap;rounded=0;" vertex="1" parent="1">
          <mxGeometry x="580" y="400" width="60" height="30" as="geometry" />
        </mxCell>
        <mxCell id="qsYzpiMb2ZFkwSfYFMTM-34" value="resume()" style="text;html=1;align=center;verticalAlign=middle;whiteSpace=wrap;rounded=0;" vertex="1" parent="1">
          <mxGeometry x="430" y="530" width="60" height="30" as="geometry" />
        </mxCell>
        <mxCell id="qsYzpiMb2ZFkwSfYFMTM-35" value="attachToVideo()" style="text;html=1;align=center;verticalAlign=middle;whiteSpace=wrap;rounded=0;" vertex="1" parent="1">
          <mxGeometry x="240" y="490" width="100" height="30" as="geometry" />
        </mxCell>
        <mxCell id="qsYzpiMb2ZFkwSfYFMTM-38" value="detach()" style="text;html=1;align=center;verticalAlign=middle;whiteSpace=wrap;rounded=0;" vertex="1" parent="1">
          <mxGeometry x="750" y="360" width="100" height="30" as="geometry" />
        </mxCell>
        <mxCell id="qsYzpiMb2ZFkwSfYFMTM-39" style="edgeStyle=orthogonalEdgeStyle;rounded=0;orthogonalLoop=1;jettySize=auto;html=1;exitX=0.75;exitY=1;exitDx=0;exitDy=0;entryX=0.25;entryY=1;entryDx=0;entryDy=0;" edge="1" parent="1" source="qsYzpiMb2ZFkwSfYFMTM-31" target="qsYzpiMb2ZFkwSfYFMTM-31">
          <mxGeometry relative="1" as="geometry">
            <Array as="points">
              <mxPoint x="790" y="510" />
              <mxPoint x="730" y="510" />
            </Array>
          </mxGeometry>
        </mxCell>
        <mxCell id="qsYzpiMb2ZFkwSfYFMTM-40" value="load()" style="text;html=1;align=center;verticalAlign=middle;whiteSpace=wrap;rounded=0;" vertex="1" parent="1">
          <mxGeometry x="730" y="510" width="60" height="30" as="geometry" />
        </mxCell>
        <mxCell id="qsYzpiMb2ZFkwSfYFMTM-42" value="resume()" style="text;html=1;align=center;verticalAlign=middle;whiteSpace=wrap;rounded=0;" vertex="1" parent="1">
          <mxGeometry x="580" y="470" width="60" height="30" as="geometry" />
        </mxCell>
        <mxCell id="qsYzpiMb2ZFkwSfYFMTM-44" value="hide()" style="text;html=1;align=center;verticalAlign=middle;whiteSpace=wrap;rounded=0;" vertex="1" parent="1">
          <mxGeometry x="860" y="470" width="60" height="30" as="geometry" />
        </mxCell>
        <mxCell id="qsYzpiMb2ZFkwSfYFMTM-45" value="show()" style="text;html=1;align=center;verticalAlign=middle;whiteSpace=wrap;rounded=0;" vertex="1" parent="1">
          <mxGeometry x="430" y="550" width="60" height="30" as="geometry" />
        </mxCell>
        <mxCell id="qsYzpiMb2ZFkwSfYFMTM-46" value="show()" style="text;html=1;align=center;verticalAlign=middle;whiteSpace=wrap;rounded=0;" vertex="1" parent="1">
          <mxGeometry x="730" y="530" width="60" height="30" as="geometry" />
        </mxCell>
        <mxCell id="qsYzpiMb2ZFkwSfYFMTM-47" value="pause()" style="text;html=1;align=center;verticalAlign=middle;whiteSpace=wrap;rounded=0;" vertex="1" parent="1">
          <mxGeometry x="730" y="550" width="60" height="30" as="geometry" />
        </mxCell>
        <mxCell id="qsYzpiMb2ZFkwSfYFMTM-48" value="attachToVideo()" style="text;html=1;align=center;verticalAlign=middle;whiteSpace=wrap;rounded=0;" vertex="1" parent="1">
          <mxGeometry x="840" y="490" width="100" height="30" as="geometry" />
        </mxCell>
      </root>
    </mxGraphModel>
  </diagram>
</mxfile>
